# xmcd
#
# Track frame offsets: 
#        150
#        22323
#        40048
#        58368
#        70403
#        86579
#        99116
#        115287
#        130986
#        141400
#        157028
#        171495
#        181692
#
# Disc length: 2687 seconds
#
# Revision: 2
# Processed by: cddbd v1.5.2PL0 Copyright (c) Steve Scherf et al.
# Submitted via: ExactAudioCopyFreeDBPlugin 1.0
#
DISCID=bd0a7d0d
DTITLE=Brooks Williams - The Time I Spend With You
DYEAR=2008
DGENRE=Folk
TTITLE0=Time I Spend With You, The
TTITLE1=Rich Tonight
TTITLE2=61 Highway
TTITLE3=Everywhere
TTITLE4=You Don't Know Me
TTITLE5=Johnny's Farewell
TTITLE6=Lightning (Going Back To Texas)
TTITLE7=Statesboro Blues
TTITLE8=Beaumont Rag
TTITLE9=Martha
TTITLE10=How Long ('til I'm In My Baby's Arms)
TTITLE11=Vagabond Blues
TTITLE12=Same Ol' Me
EXTD=
EXTT0=
EXTT1=
EXTT2=
EXTT3=
EXTT4=
EXTT5=
EXTT6=
EXTT7=
EXTT8=
EXTT9=
EXTT10=
EXTT11=
EXTT12=
PLAYORDER=
